<svg viewBox="0 0 120 120" xmlns="http://www.w3.org/2000/svg">
  <g fill="#000">
    <path d="M2 54 L118 54 L118 57 L2 57 Z" />
    <path d="M8 56 L10.2 56 L10.2 68 L8 68 Z" />
    <path d="M20 56 L22.2 56 L22.2 66 L20 66 Z" />
    <path d="M32 56 L34.2 56 L34.2 65 L32 65 Z" />
    <path d="M44 56 L46.2 56 L46.2 64 L44 64 Z" />
    <path d="M56 56 L58.2 56 L58.2 64 L56 64 Z" />
    <path d="M68 56 L70.2 56 L70.2 65 L68 65 Z" />
    <path d="M80 56 L82.2 56 L82.2 66 L80 66 Z" />
    <path d="M92 56 L94.2 56 L94.2 67 L92 67 Z" />
    <path d="M104 56 L106.2 56 L106.2 68 L104 68 Z" />
    <path d="M2 57 C10 45, 22 45, 30 57 C38 48, 50 48, 58 57 C66 48, 78 48, 86 57 C94 45, 106 45, 118 57 L118 60 C106 48, 94 48, 86 60 C78 51, 66 51, 58 60 C50 51, 38 51, 30 60 C22 48, 10 48, 2 60 Z" />
    <path d="M40 66 L85 66 L76 73 L49 73 Z" />
    <path d="M58 48 L60.8 48 L60.8 66 L58 66 Z" />
    <path d="M54 65 C56 59, 59 55, 64 52 L65.5 54 C61.5 57, 58.8 61, 57 66 Z" />
    <path d="M6 78 C20 71, 34 71, 48 78 C61 85, 75 85, 88 78 C100 72, 109 72, 114 74 L114 79 C109 77, 100 77, 88 83 C75 90, 61 90, 48 83 C34 76, 20 76, 6 83 Z" />
    <path d="M6 90 C20 84, 34 84, 48 90 C61 96, 75 96, 88 90 C99 86, 108 86, 114 88 L114 92 C108 90, 99 90, 88 94 C75 100, 61 100, 48 94 C34 88, 20 88, 6 94 Z" />
  </g>
</svg>
